<?xml version="1.0" encoding="utf-8"?>
<!-- Svg Vector Icons : http://www.onlinewebfonts.com/icon -->
<!DOCTYPE svg PUBLIC "-//W3C//DTD SVG 1.1//EN" "http://www.w3.org/Graphics/SVG/1.1/DTD/svg11.dtd">
<svg version="1.1" xmlns="http://www.w3.org/2000/svg" xmlns:xlink="http://www.w3.org/1999/xlink" x="0px" y="0px" viewBox="0 0 1000 1000" enable-background="new 0 0 1000 1000" xml:space="preserve">
<metadata> Svg Vector Icons : http://www.onlinewebfonts.com/icon </metadata>
<g><path d="M877.2,133.4H122.8C60.5,133.4,10,183.9,10,246.2v507.6c0,62.3,50.5,112.8,112.8,112.8h754.4c62.3,0,112.8-50.5,112.8-112.8V246.2C990,183.9,939.5,133.4,877.2,133.4z M947.4,753.8c0,38.7-31.5,70.2-70.2,70.2H122.8c-38.7,0-70.2-31.5-70.2-70.2V246.2c0-38.7,31.5-70.2,70.2-70.2h754.4c38.7,0,70.2,31.5,70.2,70.2V753.8z M619.9,408h156.6c11.7,0,21.3-9.5,21.3-21.3s-9.5-21.3-21.3-21.3H619.9c-11.7,0-21.3,9.5-21.3,21.3S608.2,408,619.9,408z M619.9,533.5h156.6c11.7,0,21.3-9.6,21.3-21.3c0-11.7-9.5-21.3-21.3-21.3H619.9c-11.7,0-21.3,9.5-21.3,21.3C598.6,524,608.2,533.5,619.9,533.5z M851.9,616.5h-232c-11.7,0-21.3,9.6-21.3,21.3c0,11.7,9.6,21.3,21.3,21.3h232c11.7,0,21.3-9.6,21.3-21.3C873.2,626.1,863.6,616.5,851.9,616.5z M474.3,577.5c-25-26.9-57-46.4-92.4-56.6l-3-0.9l2.7-1.5c38.3-20.5,62.1-59.9,62.1-102.6c0-64.4-52.4-116.9-116.8-116.9c-64.4,0-116.9,52.4-116.9,116.9c0,42.8,23.8,82.1,62.1,102.6l2.7,1.5l-3,0.9c-35.4,10.1-67.3,29.6-92.3,56.4c-25.5,27.3-42.7,61.1-49.7,97.7c-1.1,5.6,0.1,11.2,3.3,16c3.2,4.7,8.1,7.9,13.6,9c1.4,0.3,2.8,0.4,4.2,0.4c10,0,18.7-7.3,20.7-17.4c14.2-74.1,79.4-128,155.1-128c75.9,0,141.2,54,155.2,128.5c1.9,10,10.7,17.3,20.9,17.3c1.4,0,2.7-0.1,4-0.4c11.5-2.2,19.2-13.3,17-24.9C517,638.9,499.8,605,474.3,577.5z M326.9,341.7c40.9,0,74.3,33.3,74.3,74.3c0,41-33.3,74.3-74.3,74.3c-41,0-74.3-33.3-74.3-74.3C252.6,375,286,341.7,326.9,341.7z"/></g>
</svg>